# xmcd
#
# Track frame offsets: 
#        150
#        15154
#        38445
#        55319
#        82900
#        93271
#        113045
#        127691
#        149229
#        168305
#
# Disc length: 2590 seconds
#
# Revision: 0
# Processed by: cddbd v1.5.2PL0 Copyright (c) Steve Scherf et al.
# Submitted via: ExactAudioCopy v0.99pb3
#
DISCID=6e0a1c0a
DTITLE=Jr. Juggernaut - Ghost Poison
DYEAR=2008
DGENRE=Americana
TTITLE0=Lit By Winter
TTITLE1=Believe In Something
TTITLE2=Coming In Backwards
TTITLE3=Early Morning Blackout
TTITLE4=Midnight Mass
TTITLE5=Gone Before You Start
TTITLE6=Wailing West
TTITLE7=Another Two Weeks
TTITLE8=Breathing, Grieving
TTITLE9=The Beehive
EXTD=
EXTT0=
EXTT1=
EXTT2=
EXTT3=
EXTT4=
EXTT5=
EXTT6=
EXTT7=
EXTT8=
EXTT9=
PLAYORDER=
